<?xml version="1.0" encoding="UTF-8" standalone="no"?>
<!-- Generator: Adobe Illustrator 16.0.0, SVG Export Plug-In . SVG Version: 6.00 Build 0)  -->

<svg
   xmlns:dc="http://purl.org/dc/elements/1.1/"
   xmlns:cc="http://creativecommons.org/ns#"
   xmlns:rdf="http://www.w3.org/1999/02/22-rdf-syntax-ns#"
   xmlns:svg="http://www.w3.org/2000/svg"
   xmlns="http://www.w3.org/2000/svg"
   xmlns:sodipodi="http://sodipodi.sourceforge.net/DTD/sodipodi-0.dtd"
   xmlns:inkscape="http://www.inkscape.org/namespaces/inkscape"
   version="1.1"
   id="Capa_1"
   x="0px"
   y="0px"
   width="520"
   height="368"
   viewBox="0 0 520 368"
   xml:space="preserve"
   inkscape:version="0.91 r13725"
   sodipodi:docname="53096.svg"><metadata
     id="metadata4350"><rdf:RDF><cc:Work
         rdf:about=""><dc:format>image/svg+xml</dc:format><dc:type
           rdf:resource="http://purl.org/dc/dcmitype/StillImage" /><dc:title></dc:title></cc:Work></rdf:RDF></metadata><defs
     id="defs4348" /><sodipodi:namedview
     pagecolor="#ffffff"
     bordercolor="#666666"
     borderopacity="1"
     objecttolerance="10"
     gridtolerance="10"
     guidetolerance="10"
     inkscape:pageopacity="0"
     inkscape:pageshadow="2"
     inkscape:window-width="1855"
     inkscape:window-height="1056"
     id="namedview4346"
     showgrid="false"
     fit-margin-left="4"
     fit-margin-top="4"
     fit-margin-right="4"
     fit-margin-bottom="4"
     inkscape:zoom="0.35581493"
     inkscape:cx="130.37168"
     inkscape:cy="320.53356"
     inkscape:window-x="65"
     inkscape:window-y="24"
     inkscape:window-maximized="1"
     inkscape:current-layer="Capa_1" /><g
     id="g4308"
     transform="matrix(0.54584222,0,0,0.5935589,4,-94.378826)"
     style="fill:#ffffff;fill-opacity:1"><g
       id="g4310"
       style="fill:#ffffff;fill-opacity:1"><path
         d="m 50.792,747.965 c 0,13.415 10.875,24.29 24.29,24.29 l 787.836,0 c 13.415,0 24.29,-10.875 24.29,-24.29 l 0,-408.36 -836.416,0 0,408.36 z m 599,-271.094 c 0,-6.419 5.203,-11.622 11.622,-11.622 l 112.098,0 c 6.419,0 11.622,5.203 11.622,11.622 l 0,27.54 c 0,6.419 -5.203,11.622 -11.622,11.622 l -112.098,0 c -6.419,0 -11.622,-5.203 -11.622,-11.622 l 0,-27.54 z m -496.926,-0.576 c 0,-6.091 4.938,-11.029 11.029,-11.029 l 36.764,0 0,-36.8 c 0,-6.091 4.938,-11.028 11.029,-11.028 l 28.725,0 c 6.091,0 11.029,4.938 11.029,11.028 l 0,36.8 36.764,0 c 6.091,0 11.029,4.938 11.029,11.029 l 0,28.727 c 0,6.091 -4.938,11.028 -11.029,11.028 l -36.764,0 0,36.765 c 0,6.091 -4.938,11.028 -11.029,11.028 l -28.725,0 c -6.091,0 -11.029,-4.938 -11.029,-11.028 l 0,-36.765 -36.764,0 c -6.091,0 -11.029,-4.938 -11.029,-11.028 l 0,-28.727 0,0 z"
         id="path4312"
         inkscape:connector-curvature="0"
         style="fill:#ffffff;fill-opacity:1" /><path
         d="m 915.285,314.605 c 12.545,0 22.715,-10.17 22.715,-22.715 l 0,-38.164 c 0,-12.545 -10.17,-22.715 -22.715,-22.715 l -126.748,0 0,-42.552 c 0,-12.545 -10.17,-22.715 -22.715,-22.715 l -97.83,0 c -12.545,0 -22.715,10.17 -22.715,22.715 l 0,42.552 -343.666,0 0,-42.552 c 0,-12.545 -10.17,-22.715 -22.715,-22.715 l -97.83,0 c -12.545,0 -22.715,10.17 -22.715,22.715 l 0,42.552 -135.636,0 C 10.17,231.01 0,241.181 0,253.727 l 0,38.165 c 0,12.545 10.17,22.715 22.715,22.715 l 28.076,0 836.417,0 28.077,-0.002 0,0 z"
         id="path4314"
         inkscape:connector-curvature="0"
         style="fill:#ffffff;fill-opacity:1" /></g></g><g
     id="g4316"
     transform="translate(-206.78374,-307.07881)" /><g
     id="g4318"
     transform="translate(-206.78374,-307.07881)" /><g
     id="g4320"
     transform="translate(-206.78374,-307.07881)" /><g
     id="g4322"
     transform="translate(-206.78374,-307.07881)" /><g
     id="g4324"
     transform="translate(-206.78374,-307.07881)" /><g
     id="g4326"
     transform="translate(-206.78374,-307.07881)" /><g
     id="g4328"
     transform="translate(-206.78374,-307.07881)" /><g
     id="g4330"
     transform="translate(-206.78374,-307.07881)" /><g
     id="g4332"
     transform="translate(-206.78374,-307.07881)" /><g
     id="g4334"
     transform="translate(-206.78374,-307.07881)" /><g
     id="g4336"
     transform="translate(-206.78374,-307.07881)" /><g
     id="g4338"
     transform="translate(-206.78374,-307.07881)" /><g
     id="g4340"
     transform="translate(-206.78374,-307.07881)" /><g
     id="g4342"
     transform="translate(-206.78374,-307.07881)" /><g
     id="g4344"
     transform="translate(-206.78374,-307.07881)" /></svg>