<?xml version="1.0" encoding="UTF-8" standalone="no"?>
<!-- Created with Inkscape (http://www.inkscape.org/) -->

<svg
   xmlns:dc="http://purl.org/dc/elements/1.1/"
   xmlns:cc="http://creativecommons.org/ns#"
   xmlns:rdf="http://www.w3.org/1999/02/22-rdf-syntax-ns#"
   xmlns:svg="http://www.w3.org/2000/svg"
   xmlns="http://www.w3.org/2000/svg"
   xmlns:sodipodi="http://sodipodi.sourceforge.net/DTD/sodipodi-0.dtd"
   xmlns:inkscape="http://www.inkscape.org/namespaces/inkscape"
   width="138.16643mm"
   height="138.14369mm"
   viewBox="0 0 489.56609 489.48554"
   id="svg2"
   version="1.1"
   inkscape:version="0.91 r13725"
   inkscape:export-filename="C:\Users\hong\Desktop\path4147.png"
   inkscape:export-xdpi="220"
   inkscape:export-ydpi="220"
   sodipodi:docname="dashboard.svg">
  <defs
     id="defs4" />
  <sodipodi:namedview
     id="base"
     pagecolor="#ffffff"
     bordercolor="#666666"
     borderopacity="1.0"
     inkscape:pageopacity="0.0"
     inkscape:pageshadow="2"
     inkscape:zoom="0.49497475"
     inkscape:cx="-27.659183"
     inkscape:cy="114.88729"
     inkscape:document-units="px"
     inkscape:current-layer="layer1"
     showgrid="false"
     fit-margin-top="2"
     fit-margin-left="2"
     fit-margin-right="2"
     fit-margin-bottom="2"
     inkscape:window-width="1536"
     inkscape:window-height="801"
     inkscape:window-x="-8"
     inkscape:window-y="-8"
     inkscape:window-maximized="1" />
  <metadata
     id="metadata7">
    <rdf:RDF>
      <cc:Work
         rdf:about="">
        <dc:format>image/svg+xml</dc:format>
        <dc:type
           rdf:resource="http://purl.org/dc/dcmitype/StillImage" />
        <dc:title></dc:title>
      </cc:Work>
    </rdf:RDF>
  </metadata>
  <g
     inkscape:label="Layer 1"
     inkscape:groupmode="layer"
     id="layer1"
     transform="translate(-123.67206,-212.98365)">
    <path
       style="fill:#ffffff;fill-opacity:1"
       d="m 351.3373,695.11679 c -12.22183,-1.0733 -28.85821,-3.8743 -41.20283,-6.9373 -54.59356,-13.5459 -100.28931,-44.8152 -136.58537,-93.46456 -4.06466,-5.44806 -14.43548,-23.29688 -19.52818,-33.60922 -9.72223,-19.68673 -17.28278,-44.09091 -21.34277,-68.89078 -2.54782,-15.56305 -2.56201,-53.34539 -0.0261,-69.5 8.50363,-54.1709 34.90557,-104.19499 73.68524,-139.61235 3.025,-2.76272 6.625,-6.04836 8,-7.30143 1.375,-1.25306 6.55,-5.33761 11.5,-9.07677 29.99728,-22.65954 66.4144,-38.0027 106,-44.65963 15.8567,-2.66655 58.45095,-2.65736 73.5,0.0159 25.83617,4.58937 44.56718,10.52103 66.5,21.05893 70.37818,33.81412 120.24041,101.27455 131.99097,178.5754 2.23235,14.68546 3.02896,42.91284 1.62271,57.5 -4.382,45.45514 -20.31965,86.24075 -48.06428,123 -9.62311,12.7498 -31.71998,34.81619 -44.56146,44.50001 -32.85583,24.7767 -70.30192,40.4574 -110.98794,46.4766 -10.6121,1.57 -41.24631,2.7379 -50.5,1.9252 z m 52.48277,-28.321 c 6.59053,-1.1408 14.46553,-2.8004 17.5,-3.6879 3.03448,-0.8875 7.96645,-2.2558 10.95993,-3.0408 2.99349,-0.7849 5.91849,-1.8007 6.5,-2.2573 0.58152,-0.4566 3.5323,-1.6285 6.5573,-2.6041 17.36751,-5.6016 46.10354,-23.20256 64.44629,-39.47372 13.4948,-11.97073 30.44634,-31.96174 37.32459,-44.01704 1.41213,-2.475 3.11985,-5.175 3.79493,-6 2.37037,-2.89679 13.33062,-25.65863 16.38491,-34.02758 17.83084,-48.85766 17.56002,-101.35914 -0.77619,-150.47242 -6.84404,-18.33165 -21.37405,-43.30423 -34.03492,-58.49544 -8.58201,-10.29717 -26.43788,-27.32364 -36.45412,-34.76082 -38.19934,-28.3635 -80.74061,-42.51823 -127.68549,-42.48472 -57.52514,0.0411 -109.18203,21.46042 -150.05363,62.21923 -35.45582,35.35798 -55.96247,79.06426 -61.40082,130.86494 -2.90893,27.70781 2.00088,64.35616 12.46114,93.01376 3.11266,8.52765 14.09773,31.40848 16.3883,34.13523 0.69664,0.8293 2.422,3.53282 3.83413,6.00782 2.97104,5.20725 12.73043,18.28454 18.96942,25.41846 27.79379,31.78057 65.18793,54.9675 105.80146,65.6041 8.85621,2.3194 18.74392,4.0993 35.5,6.3902 8.24524,1.1273 42.56341,-0.3551 53.98277,-2.3319 z m -106.48277,-74.08086 0,-32 19,0 19,0 0,32 0,32 -19,0 -19,0 0,-32 z m 59,0 0,-32 19,0 19,0 0,32 0,32 -19,0 -19,0 0,-32 z m 57.66667,31.33333 c -0.36667,-0.36666 -0.66667,-14.76666 -0.66667,-32 l 0,-31.33333 19.5,0 19.5,0 0,32 0,32 -18.83333,0 c -10.35834,0 -19.13334,-0.3 -19.5,-0.66667 z m 72.92894,-81.23758 -15.88094,-15.90424 8.12846,-8.09576 c 4.47066,-4.45266 8.4778,-8.09575 8.90477,-8.09575 1.16216,0 31.2521,30.3625 31.2521,31.53519 0,0.9905 -15.06927,16.46481 -16.03385,16.46481 -0.26927,0 -7.63602,-7.15691 -16.37054,-15.90425 z m -254.86907,3.13213 c -4.2496,-4.27467 -7.72654,-8.21762 -7.72654,-8.7621 0,-0.54449 6.97275,-7.95184 15.49499,-16.46078 l 15.495,-15.4708 8.51037,8.46616 8.51037,8.46615 -15.74365,15.76675 c -8.659,8.67171 -15.98447,15.76674 -16.27882,15.76674 -0.29435,0 -4.01212,-3.49746 -8.26172,-7.77212 z m 140.91072,-55.69269 c -5.46824,-1.94938 -9.31943,-6.04406 -11.23623,-11.94667 -1.7989,-5.53954 -3.28249,-7.75528 -13.86211,-20.703 -8.84868,-10.82932 -20.26714,-25.09606 -23.53892,-29.41058 -1.375,-1.81322 -8.94798,-11.25138 -16.82884,-20.97368 -7.88087,-9.7223 -14.15426,-17.85149 -13.94088,-18.06488 0.21339,-0.21338 2.64473,1.28864 5.40298,3.33783 2.75825,2.04918 10.54238,7.77579 17.29806,12.72579 22.15371,16.23239 44.42499,32.63391 57.32513,42.21669 3.16605,2.35187 7.58092,4.68606 9.81083,5.18709 9.82523,2.20758 16.07558,9.83134 16.07558,19.60793 0,6.11995 -1.60665,9.71256 -6.30754,14.10418 -5.63586,5.26509 -12.62088,6.62048 -20.19806,3.9193 z M 194.76892,443.39733 c -0.27809,-0.72469 -0.37647,-6.01219 -0.21862,-11.75 l 0.287,-10.4324 22.75,-0.26877 22.75,-0.26878 0,12.01878 0,12.01877 -22.53138,0 c -17.71918,0 -22.63938,-0.28141 -23.037,-1.3176 z m 308.56838,-10.6824 0,-12 23,0 23,0 0,12 0,12 -23,0 -23,0 0,-12 z m -32.60538,-71.09023 -8.09023,-8.09023 16.03103,-15.96941 16.03102,-15.9694 8.55716,8.55715 8.55715,8.55716 -15.47827,15.50248 c -8.51306,8.52636 -15.93713,15.50248 -16.49796,15.50248 -0.56082,0 -4.66027,-3.6406 -9.1099,-8.09023 z m -221.80897,-16.56197 -15.76697,-15.6522 8.58818,-8.58817 8.58818,-8.58818 15.50248,15.47827 c 8.52636,8.51306 15.50248,15.99883 15.50248,16.63506 0,1.27183 -14.64588,16.36742 -15.87982,16.36742 -0.42215,0 -7.86269,-7.04349 -16.53453,-15.6522 z m 107.41435,-44.8478 0,-22.5 12,0 12,0 0,22.5 0,22.5 -12,0 -12,0 0,-22.5 z"
       id="path4160"
       inkscape:connector-curvature="0" />
  </g>
</svg>
